M48
; DRILL file {KiCad 9.0.0} date 2025-03-16T22:49:27+0000
; FORMAT={-:-/ absolute / metric / decimal}
; #@! TF.CreationDate,2025-03-16T22:49:27+00:00
; #@! TF.GenerationSoftware,Kicad,Pcbnew,9.0.0
; #@! TF.FileFunction,Plated,1,2,PTH
FMAT,2
METRIC
; #@! TA.AperFunction,Plated,PTH,ViaDrill
T1C0.300
; #@! TA.AperFunction,Plated,PTH,ViaDrill
T2C0.400
; #@! TA.AperFunction,Plated,PTH,ComponentDrill
T3C0.600
; #@! TA.AperFunction,Plated,PTH,ComponentDrill
T4C1.000
; #@! TA.AperFunction,Plated,PTH,ComponentDrill
T5C1.000
; #@! TA.AperFunction,Plated,PTH,ComponentDrill
T6C1.600
; #@! TA.AperFunction,Plated,PTH,ComponentDrill
T7C2.200
%
G90
G05
T1
X128.9Y-124.2
X129.2Y-106.0
X129.2Y-109.32
X129.3Y-117.3
X134.3Y-91.1
X134.4Y-133.3
X134.6Y-134.7
X134.6Y-136.0
X135.173Y-86.316
X135.76Y-93.06
X135.842Y-85.878
X136.4Y-84.0
X137.9Y-84.7
X137.9Y-86.027
X138.2Y-83.1
X138.844Y-92.956
X139.7Y-92.7
X140.6Y-92.7
X140.6Y-126.8
X140.6Y-128.2
X140.6Y-129.6
X140.9Y-85.3
X140.9Y-125.8
X140.9Y-130.7
X141.0Y-84.0
X141.1Y-86.8
X141.4Y-86.0
X142.0Y-125.6
X142.0Y-130.9
X142.6Y-86.0
X143.4Y-130.9
X143.5Y-125.6
X143.65Y-89.1
X143.825Y-87.3
X144.4Y-90.6
X144.9Y-83.7
X144.9Y-125.6
X144.9Y-130.9
X145.1Y-120.9
X145.4Y-90.6
X146.0Y-125.8
X146.1Y-120.8
X146.1Y-126.8
X146.1Y-128.2
X146.1Y-129.7
X146.1Y-130.8
X146.788Y-101.2
X147.1Y-83.8
X147.6Y-99.1
X147.6Y-133.6
X147.7Y-89.4
X147.9Y-134.7
X148.6Y-131.0
X149.0Y-134.6
X149.0Y-135.9
X149.554Y-101.25
X150.7Y-129.2
X151.1Y-127.0
X151.1Y-135.2
X151.5Y-122.0
X151.65Y-129.877
X152.1Y-115.4
X152.3Y-113.7
X152.3Y-135.2
X153.1Y-120.4
X153.8Y-112.4
X153.8Y-125.0
X153.8Y-135.2
X155.0Y-120.1
X155.3Y-128.9
X155.4Y-129.7
T2
X129.3Y-97.9
X129.9Y-97.3
X138.1Y-102.7
X138.1Y-103.7
X138.1Y-104.7
X139.1Y-81.6
X140.9Y-106.57
X141.0Y-102.7
X141.0Y-103.7
X141.0Y-104.7
X143.7Y-102.7
X143.7Y-103.7
X143.7Y-104.7
X147.3Y-120.8
X148.6Y-102.7
X149.6Y-102.7
X149.7Y-103.7
X152.3Y-99.7
X152.5Y-94.1
X152.8Y-101.9
X153.2Y-113.1
X153.7Y-94.1
X153.9Y-103.7
T4
X130.63Y-86.345
X130.63Y-88.845
T5
X136.243Y-112.912
X138.783Y-112.912
X141.323Y-112.912
X143.863Y-112.912
X145.08Y-80.4
X146.403Y-112.912
X147.62Y-80.4
X148.943Y-112.912
X150.16Y-80.4
X152.7Y-80.4
T6
X126.182Y-96.632
X126.182Y-100.132
X126.182Y-103.632
X126.182Y-107.132
X126.182Y-110.632
X126.182Y-115.532
X126.182Y-119.032
X126.182Y-122.532
X126.182Y-127.532
X126.182Y-131.032
X126.182Y-134.532
T7
X125.57Y-81.295
X125.57Y-91.395
T3
G00X151.055Y-96.37
M15
G01X151.955Y-96.37
M16
G05
G00X151.055Y-105.03
M15
G01X151.955Y-105.03
M16
G05
G00X154.295Y-96.37
M15
G01X155.095Y-96.37
M16
G05
G00X154.295Y-105.03
M15
G01X155.095Y-105.03
M16
G05
M30
