%TF.GenerationSoftware,KiCad,Pcbnew,9.0.0*%
%TF.CreationDate,2025-03-16T22:49:27+00:00*%
%TF.ProjectId,Fiverr_javierbatemanar_greenHouse_IoT,46697665-7272-45f6-9a61-766965726261,rev?*%
%TF.SameCoordinates,Original*%
%TF.FileFunction,Drillmap*%
%TF.FilePolarity,Positive*%
%FSLAX45Y45*%
G04 Gerber Fmt 4.5, Leading zero omitted, Abs format (unit mm)*
G04 Created by KiCad (PCBNEW 9.0.0) date 2025-03-16 22:49:27*
%MOMM*%
%LPD*%
G01*
G04 APERTURE LIST*
%ADD10C,0.050000*%
%ADD11C,0.200000*%
%ADD12C,0.320000*%
G04 APERTURE END LIST*
D10*
X11790000Y-7790000D02*
X15620000Y-7790000D01*
X15620000Y-13730000D01*
X11790000Y-13730000D01*
X11790000Y-7790000D01*
D11*
D12*
X12930000Y-11160000D02*
X13250000Y-11480000D01*
X13250000Y-11160000D02*
X12930000Y-11480000D01*
X14530000Y-10610000D02*
X14850000Y-10930000D01*
X14850000Y-10610000D02*
X14530000Y-10930000D01*
X15100000Y-8382750D02*
X15420000Y-8702750D01*
X15420000Y-8382750D02*
X15100000Y-8702750D01*
D11*
X12048277Y-14043984D02*
X12048277Y-13843984D01*
X12048277Y-13843984D02*
X12095896Y-13843984D01*
X12095896Y-13843984D02*
X12124467Y-13853508D01*
X12124467Y-13853508D02*
X12143515Y-13872555D01*
X12143515Y-13872555D02*
X12153039Y-13891603D01*
X12153039Y-13891603D02*
X12162562Y-13929698D01*
X12162562Y-13929698D02*
X12162562Y-13958269D01*
X12162562Y-13958269D02*
X12153039Y-13996365D01*
X12153039Y-13996365D02*
X12143515Y-14015412D01*
X12143515Y-14015412D02*
X12124467Y-14034460D01*
X12124467Y-14034460D02*
X12095896Y-14043984D01*
X12095896Y-14043984D02*
X12048277Y-14043984D01*
X12248277Y-14043984D02*
X12248277Y-13910650D01*
X12248277Y-13948746D02*
X12257801Y-13929698D01*
X12257801Y-13929698D02*
X12267324Y-13920174D01*
X12267324Y-13920174D02*
X12286372Y-13910650D01*
X12286372Y-13910650D02*
X12305420Y-13910650D01*
X12372086Y-14043984D02*
X12372086Y-13910650D01*
X12372086Y-13843984D02*
X12362562Y-13853508D01*
X12362562Y-13853508D02*
X12372086Y-13863031D01*
X12372086Y-13863031D02*
X12381610Y-13853508D01*
X12381610Y-13853508D02*
X12372086Y-13843984D01*
X12372086Y-13843984D02*
X12372086Y-13863031D01*
X12495896Y-14043984D02*
X12476848Y-14034460D01*
X12476848Y-14034460D02*
X12467324Y-14015412D01*
X12467324Y-14015412D02*
X12467324Y-13843984D01*
X12600658Y-14043984D02*
X12581610Y-14034460D01*
X12581610Y-14034460D02*
X12572086Y-14015412D01*
X12572086Y-14015412D02*
X12572086Y-13843984D01*
X12829229Y-14043984D02*
X12829229Y-13843984D01*
X12829229Y-13843984D02*
X12895896Y-13986841D01*
X12895896Y-13986841D02*
X12962562Y-13843984D01*
X12962562Y-13843984D02*
X12962562Y-14043984D01*
X13143515Y-14043984D02*
X13143515Y-13939222D01*
X13143515Y-13939222D02*
X13133991Y-13920174D01*
X13133991Y-13920174D02*
X13114943Y-13910650D01*
X13114943Y-13910650D02*
X13076848Y-13910650D01*
X13076848Y-13910650D02*
X13057801Y-13920174D01*
X13143515Y-14034460D02*
X13124467Y-14043984D01*
X13124467Y-14043984D02*
X13076848Y-14043984D01*
X13076848Y-14043984D02*
X13057801Y-14034460D01*
X13057801Y-14034460D02*
X13048277Y-14015412D01*
X13048277Y-14015412D02*
X13048277Y-13996365D01*
X13048277Y-13996365D02*
X13057801Y-13977317D01*
X13057801Y-13977317D02*
X13076848Y-13967793D01*
X13076848Y-13967793D02*
X13124467Y-13967793D01*
X13124467Y-13967793D02*
X13143515Y-13958269D01*
X13238753Y-13910650D02*
X13238753Y-14110650D01*
X13238753Y-13920174D02*
X13257801Y-13910650D01*
X13257801Y-13910650D02*
X13295896Y-13910650D01*
X13295896Y-13910650D02*
X13314943Y-13920174D01*
X13314943Y-13920174D02*
X13324467Y-13929698D01*
X13324467Y-13929698D02*
X13333991Y-13948746D01*
X13333991Y-13948746D02*
X13333991Y-14005888D01*
X13333991Y-14005888D02*
X13324467Y-14024936D01*
X13324467Y-14024936D02*
X13314943Y-14034460D01*
X13314943Y-14034460D02*
X13295896Y-14043984D01*
X13295896Y-14043984D02*
X13257801Y-14043984D01*
X13257801Y-14043984D02*
X13238753Y-14034460D01*
X13419705Y-14024936D02*
X13429229Y-14034460D01*
X13429229Y-14034460D02*
X13419705Y-14043984D01*
X13419705Y-14043984D02*
X13410182Y-14034460D01*
X13410182Y-14034460D02*
X13419705Y-14024936D01*
X13419705Y-14024936D02*
X13419705Y-14043984D01*
X13419705Y-13920174D02*
X13429229Y-13929698D01*
X13429229Y-13929698D02*
X13419705Y-13939222D01*
X13419705Y-13939222D02*
X13410182Y-13929698D01*
X13410182Y-13929698D02*
X13419705Y-13920174D01*
X13419705Y-13920174D02*
X13419705Y-13939222D01*
X11587500Y-14272500D02*
X11787500Y-14472500D01*
X11787500Y-14272500D02*
X11587500Y-14472500D01*
X12029229Y-14263984D02*
X12153039Y-14263984D01*
X12153039Y-14263984D02*
X12086372Y-14340174D01*
X12086372Y-14340174D02*
X12114943Y-14340174D01*
X12114943Y-14340174D02*
X12133991Y-14349698D01*
X12133991Y-14349698D02*
X12143515Y-14359222D01*
X12143515Y-14359222D02*
X12153039Y-14378269D01*
X12153039Y-14378269D02*
X12153039Y-14425888D01*
X12153039Y-14425888D02*
X12143515Y-14444936D01*
X12143515Y-14444936D02*
X12133991Y-14454460D01*
X12133991Y-14454460D02*
X12114943Y-14463984D01*
X12114943Y-14463984D02*
X12057801Y-14463984D01*
X12057801Y-14463984D02*
X12038753Y-14454460D01*
X12038753Y-14454460D02*
X12029229Y-14444936D01*
X12238753Y-14444936D02*
X12248277Y-14454460D01*
X12248277Y-14454460D02*
X12238753Y-14463984D01*
X12238753Y-14463984D02*
X12229229Y-14454460D01*
X12229229Y-14454460D02*
X12238753Y-14444936D01*
X12238753Y-14444936D02*
X12238753Y-14463984D01*
X12324467Y-14283031D02*
X12333991Y-14273508D01*
X12333991Y-14273508D02*
X12353039Y-14263984D01*
X12353039Y-14263984D02*
X12400658Y-14263984D01*
X12400658Y-14263984D02*
X12419705Y-14273508D01*
X12419705Y-14273508D02*
X12429229Y-14283031D01*
X12429229Y-14283031D02*
X12438753Y-14302079D01*
X12438753Y-14302079D02*
X12438753Y-14321127D01*
X12438753Y-14321127D02*
X12429229Y-14349698D01*
X12429229Y-14349698D02*
X12314943Y-14463984D01*
X12314943Y-14463984D02*
X12438753Y-14463984D01*
X12562562Y-14263984D02*
X12581610Y-14263984D01*
X12581610Y-14263984D02*
X12600658Y-14273508D01*
X12600658Y-14273508D02*
X12610182Y-14283031D01*
X12610182Y-14283031D02*
X12619705Y-14302079D01*
X12619705Y-14302079D02*
X12629229Y-14340174D01*
X12629229Y-14340174D02*
X12629229Y-14387793D01*
X12629229Y-14387793D02*
X12619705Y-14425888D01*
X12619705Y-14425888D02*
X12610182Y-14444936D01*
X12610182Y-14444936D02*
X12600658Y-14454460D01*
X12600658Y-14454460D02*
X12581610Y-14463984D01*
X12581610Y-14463984D02*
X12562562Y-14463984D01*
X12562562Y-14463984D02*
X12543515Y-14454460D01*
X12543515Y-14454460D02*
X12533991Y-14444936D01*
X12533991Y-14444936D02*
X12524467Y-14425888D01*
X12524467Y-14425888D02*
X12514943Y-14387793D01*
X12514943Y-14387793D02*
X12514943Y-14340174D01*
X12514943Y-14340174D02*
X12524467Y-14302079D01*
X12524467Y-14302079D02*
X12533991Y-14283031D01*
X12533991Y-14283031D02*
X12543515Y-14273508D01*
X12543515Y-14273508D02*
X12562562Y-14263984D01*
X12753039Y-14263984D02*
X12772086Y-14263984D01*
X12772086Y-14263984D02*
X12791134Y-14273508D01*
X12791134Y-14273508D02*
X12800658Y-14283031D01*
X12800658Y-14283031D02*
X12810182Y-14302079D01*
X12810182Y-14302079D02*
X12819705Y-14340174D01*
X12819705Y-14340174D02*
X12819705Y-14387793D01*
X12819705Y-14387793D02*
X12810182Y-14425888D01*
X12810182Y-14425888D02*
X12800658Y-14444936D01*
X12800658Y-14444936D02*
X12791134Y-14454460D01*
X12791134Y-14454460D02*
X12772086Y-14463984D01*
X12772086Y-14463984D02*
X12753039Y-14463984D01*
X12753039Y-14463984D02*
X12733991Y-14454460D01*
X12733991Y-14454460D02*
X12724467Y-14444936D01*
X12724467Y-14444936D02*
X12714943Y-14425888D01*
X12714943Y-14425888D02*
X12705420Y-14387793D01*
X12705420Y-14387793D02*
X12705420Y-14340174D01*
X12705420Y-14340174D02*
X12714943Y-14302079D01*
X12714943Y-14302079D02*
X12724467Y-14283031D01*
X12724467Y-14283031D02*
X12733991Y-14273508D01*
X12733991Y-14273508D02*
X12753039Y-14263984D01*
X12905420Y-14463984D02*
X12905420Y-14330650D01*
X12905420Y-14349698D02*
X12914943Y-14340174D01*
X12914943Y-14340174D02*
X12933991Y-14330650D01*
X12933991Y-14330650D02*
X12962563Y-14330650D01*
X12962563Y-14330650D02*
X12981610Y-14340174D01*
X12981610Y-14340174D02*
X12991134Y-14359222D01*
X12991134Y-14359222D02*
X12991134Y-14463984D01*
X12991134Y-14359222D02*
X13000658Y-14340174D01*
X13000658Y-14340174D02*
X13019705Y-14330650D01*
X13019705Y-14330650D02*
X13048277Y-14330650D01*
X13048277Y-14330650D02*
X13067324Y-14340174D01*
X13067324Y-14340174D02*
X13076848Y-14359222D01*
X13076848Y-14359222D02*
X13076848Y-14463984D01*
X13172086Y-14463984D02*
X13172086Y-14330650D01*
X13172086Y-14349698D02*
X13181610Y-14340174D01*
X13181610Y-14340174D02*
X13200658Y-14330650D01*
X13200658Y-14330650D02*
X13229229Y-14330650D01*
X13229229Y-14330650D02*
X13248277Y-14340174D01*
X13248277Y-14340174D02*
X13257801Y-14359222D01*
X13257801Y-14359222D02*
X13257801Y-14463984D01*
X13257801Y-14359222D02*
X13267324Y-14340174D01*
X13267324Y-14340174D02*
X13286372Y-14330650D01*
X13286372Y-14330650D02*
X13314943Y-14330650D01*
X13314943Y-14330650D02*
X13333991Y-14340174D01*
X13333991Y-14340174D02*
X13343515Y-14359222D01*
X13343515Y-14359222D02*
X13343515Y-14463984D01*
X13733991Y-14254460D02*
X13562563Y-14511603D01*
X13991134Y-14263984D02*
X14010182Y-14263984D01*
X14010182Y-14263984D02*
X14029229Y-14273508D01*
X14029229Y-14273508D02*
X14038753Y-14283031D01*
X14038753Y-14283031D02*
X14048277Y-14302079D01*
X14048277Y-14302079D02*
X14057801Y-14340174D01*
X14057801Y-14340174D02*
X14057801Y-14387793D01*
X14057801Y-14387793D02*
X14048277Y-14425888D01*
X14048277Y-14425888D02*
X14038753Y-14444936D01*
X14038753Y-14444936D02*
X14029229Y-14454460D01*
X14029229Y-14454460D02*
X14010182Y-14463984D01*
X14010182Y-14463984D02*
X13991134Y-14463984D01*
X13991134Y-14463984D02*
X13972086Y-14454460D01*
X13972086Y-14454460D02*
X13962563Y-14444936D01*
X13962563Y-14444936D02*
X13953039Y-14425888D01*
X13953039Y-14425888D02*
X13943515Y-14387793D01*
X13943515Y-14387793D02*
X13943515Y-14340174D01*
X13943515Y-14340174D02*
X13953039Y-14302079D01*
X13953039Y-14302079D02*
X13962563Y-14283031D01*
X13962563Y-14283031D02*
X13972086Y-14273508D01*
X13972086Y-14273508D02*
X13991134Y-14263984D01*
X14143515Y-14444936D02*
X14153039Y-14454460D01*
X14153039Y-14454460D02*
X14143515Y-14463984D01*
X14143515Y-14463984D02*
X14133991Y-14454460D01*
X14133991Y-14454460D02*
X14143515Y-14444936D01*
X14143515Y-14444936D02*
X14143515Y-14463984D01*
X14343515Y-14463984D02*
X14229229Y-14463984D01*
X14286372Y-14463984D02*
X14286372Y-14263984D01*
X14286372Y-14263984D02*
X14267325Y-14292555D01*
X14267325Y-14292555D02*
X14248277Y-14311603D01*
X14248277Y-14311603D02*
X14229229Y-14321127D01*
X14419706Y-14283031D02*
X14429229Y-14273508D01*
X14429229Y-14273508D02*
X14448277Y-14263984D01*
X14448277Y-14263984D02*
X14495896Y-14263984D01*
X14495896Y-14263984D02*
X14514944Y-14273508D01*
X14514944Y-14273508D02*
X14524467Y-14283031D01*
X14524467Y-14283031D02*
X14533991Y-14302079D01*
X14533991Y-14302079D02*
X14533991Y-14321127D01*
X14533991Y-14321127D02*
X14524467Y-14349698D01*
X14524467Y-14349698D02*
X14410182Y-14463984D01*
X14410182Y-14463984D02*
X14533991Y-14463984D01*
X14705420Y-14263984D02*
X14667325Y-14263984D01*
X14667325Y-14263984D02*
X14648277Y-14273508D01*
X14648277Y-14273508D02*
X14638753Y-14283031D01*
X14638753Y-14283031D02*
X14619706Y-14311603D01*
X14619706Y-14311603D02*
X14610182Y-14349698D01*
X14610182Y-14349698D02*
X14610182Y-14425888D01*
X14610182Y-14425888D02*
X14619706Y-14444936D01*
X14619706Y-14444936D02*
X14629229Y-14454460D01*
X14629229Y-14454460D02*
X14648277Y-14463984D01*
X14648277Y-14463984D02*
X14686372Y-14463984D01*
X14686372Y-14463984D02*
X14705420Y-14454460D01*
X14705420Y-14454460D02*
X14714944Y-14444936D01*
X14714944Y-14444936D02*
X14724467Y-14425888D01*
X14724467Y-14425888D02*
X14724467Y-14378269D01*
X14724467Y-14378269D02*
X14714944Y-14359222D01*
X14714944Y-14359222D02*
X14705420Y-14349698D01*
X14705420Y-14349698D02*
X14686372Y-14340174D01*
X14686372Y-14340174D02*
X14648277Y-14340174D01*
X14648277Y-14340174D02*
X14629229Y-14349698D01*
X14629229Y-14349698D02*
X14619706Y-14359222D01*
X14619706Y-14359222D02*
X14610182Y-14378269D01*
X14848277Y-14263984D02*
X14867325Y-14263984D01*
X14867325Y-14263984D02*
X14886372Y-14273508D01*
X14886372Y-14273508D02*
X14895896Y-14283031D01*
X14895896Y-14283031D02*
X14905420Y-14302079D01*
X14905420Y-14302079D02*
X14914944Y-14340174D01*
X14914944Y-14340174D02*
X14914944Y-14387793D01*
X14914944Y-14387793D02*
X14905420Y-14425888D01*
X14905420Y-14425888D02*
X14895896Y-14444936D01*
X14895896Y-14444936D02*
X14886372Y-14454460D01*
X14886372Y-14454460D02*
X14867325Y-14463984D01*
X14867325Y-14463984D02*
X14848277Y-14463984D01*
X14848277Y-14463984D02*
X14829229Y-14454460D01*
X14829229Y-14454460D02*
X14819706Y-14444936D01*
X14819706Y-14444936D02*
X14810182Y-14425888D01*
X14810182Y-14425888D02*
X14800658Y-14387793D01*
X14800658Y-14387793D02*
X14800658Y-14340174D01*
X14800658Y-14340174D02*
X14810182Y-14302079D01*
X14810182Y-14302079D02*
X14819706Y-14283031D01*
X14819706Y-14283031D02*
X14829229Y-14273508D01*
X14829229Y-14273508D02*
X14848277Y-14263984D01*
X14991134Y-14263984D02*
X14991134Y-14302079D01*
X15067325Y-14263984D02*
X15067325Y-14302079D01*
X15362563Y-14540174D02*
X15353039Y-14530650D01*
X15353039Y-14530650D02*
X15333991Y-14502079D01*
X15333991Y-14502079D02*
X15324468Y-14483031D01*
X15324468Y-14483031D02*
X15314944Y-14454460D01*
X15314944Y-14454460D02*
X15305420Y-14406841D01*
X15305420Y-14406841D02*
X15305420Y-14368746D01*
X15305420Y-14368746D02*
X15314944Y-14321127D01*
X15314944Y-14321127D02*
X15324468Y-14292555D01*
X15324468Y-14292555D02*
X15333991Y-14273508D01*
X15333991Y-14273508D02*
X15353039Y-14244936D01*
X15353039Y-14244936D02*
X15362563Y-14235412D01*
X15419706Y-14263984D02*
X15543515Y-14263984D01*
X15543515Y-14263984D02*
X15476848Y-14340174D01*
X15476848Y-14340174D02*
X15505420Y-14340174D01*
X15505420Y-14340174D02*
X15524468Y-14349698D01*
X15524468Y-14349698D02*
X15533991Y-14359222D01*
X15533991Y-14359222D02*
X15543515Y-14378269D01*
X15543515Y-14378269D02*
X15543515Y-14425888D01*
X15543515Y-14425888D02*
X15533991Y-14444936D01*
X15533991Y-14444936D02*
X15524468Y-14454460D01*
X15524468Y-14454460D02*
X15505420Y-14463984D01*
X15505420Y-14463984D02*
X15448277Y-14463984D01*
X15448277Y-14463984D02*
X15429229Y-14454460D01*
X15429229Y-14454460D02*
X15419706Y-14444936D01*
X15781610Y-14463984D02*
X15781610Y-14263984D01*
X15867325Y-14463984D02*
X15867325Y-14359222D01*
X15867325Y-14359222D02*
X15857801Y-14340174D01*
X15857801Y-14340174D02*
X15838753Y-14330650D01*
X15838753Y-14330650D02*
X15810182Y-14330650D01*
X15810182Y-14330650D02*
X15791134Y-14340174D01*
X15791134Y-14340174D02*
X15781610Y-14349698D01*
X15991134Y-14463984D02*
X15972087Y-14454460D01*
X15972087Y-14454460D02*
X15962563Y-14444936D01*
X15962563Y-14444936D02*
X15953039Y-14425888D01*
X15953039Y-14425888D02*
X15953039Y-14368746D01*
X15953039Y-14368746D02*
X15962563Y-14349698D01*
X15962563Y-14349698D02*
X15972087Y-14340174D01*
X15972087Y-14340174D02*
X15991134Y-14330650D01*
X15991134Y-14330650D02*
X16019706Y-14330650D01*
X16019706Y-14330650D02*
X16038753Y-14340174D01*
X16038753Y-14340174D02*
X16048277Y-14349698D01*
X16048277Y-14349698D02*
X16057801Y-14368746D01*
X16057801Y-14368746D02*
X16057801Y-14425888D01*
X16057801Y-14425888D02*
X16048277Y-14444936D01*
X16048277Y-14444936D02*
X16038753Y-14454460D01*
X16038753Y-14454460D02*
X16019706Y-14463984D01*
X16019706Y-14463984D02*
X15991134Y-14463984D01*
X16172087Y-14463984D02*
X16153039Y-14454460D01*
X16153039Y-14454460D02*
X16143515Y-14435412D01*
X16143515Y-14435412D02*
X16143515Y-14263984D01*
X16324468Y-14454460D02*
X16305420Y-14463984D01*
X16305420Y-14463984D02*
X16267325Y-14463984D01*
X16267325Y-14463984D02*
X16248277Y-14454460D01*
X16248277Y-14454460D02*
X16238753Y-14435412D01*
X16238753Y-14435412D02*
X16238753Y-14359222D01*
X16238753Y-14359222D02*
X16248277Y-14340174D01*
X16248277Y-14340174D02*
X16267325Y-14330650D01*
X16267325Y-14330650D02*
X16305420Y-14330650D01*
X16305420Y-14330650D02*
X16324468Y-14340174D01*
X16324468Y-14340174D02*
X16333991Y-14359222D01*
X16333991Y-14359222D02*
X16333991Y-14378269D01*
X16333991Y-14378269D02*
X16238753Y-14397317D01*
X16410182Y-14454460D02*
X16429230Y-14463984D01*
X16429230Y-14463984D02*
X16467325Y-14463984D01*
X16467325Y-14463984D02*
X16486372Y-14454460D01*
X16486372Y-14454460D02*
X16495896Y-14435412D01*
X16495896Y-14435412D02*
X16495896Y-14425888D01*
X16495896Y-14425888D02*
X16486372Y-14406841D01*
X16486372Y-14406841D02*
X16467325Y-14397317D01*
X16467325Y-14397317D02*
X16438753Y-14397317D01*
X16438753Y-14397317D02*
X16419706Y-14387793D01*
X16419706Y-14387793D02*
X16410182Y-14368746D01*
X16410182Y-14368746D02*
X16410182Y-14359222D01*
X16410182Y-14359222D02*
X16419706Y-14340174D01*
X16419706Y-14340174D02*
X16438753Y-14330650D01*
X16438753Y-14330650D02*
X16467325Y-14330650D01*
X16467325Y-14330650D02*
X16486372Y-14340174D01*
X16562563Y-14540174D02*
X16572087Y-14530650D01*
X16572087Y-14530650D02*
X16591134Y-14502079D01*
X16591134Y-14502079D02*
X16600658Y-14483031D01*
X16600658Y-14483031D02*
X16610182Y-14454460D01*
X16610182Y-14454460D02*
X16619706Y-14406841D01*
X16619706Y-14406841D02*
X16619706Y-14368746D01*
X16619706Y-14368746D02*
X16610182Y-14321127D01*
X16610182Y-14321127D02*
X16600658Y-14292555D01*
X16600658Y-14292555D02*
X16591134Y-14273508D01*
X16591134Y-14273508D02*
X16572087Y-14244936D01*
X16572087Y-14244936D02*
X16562563Y-14235412D01*
X16924468Y-14540174D02*
X16914944Y-14530650D01*
X16914944Y-14530650D02*
X16895896Y-14502079D01*
X16895896Y-14502079D02*
X16886373Y-14483031D01*
X16886373Y-14483031D02*
X16876849Y-14454460D01*
X16876849Y-14454460D02*
X16867325Y-14406841D01*
X16867325Y-14406841D02*
X16867325Y-14368746D01*
X16867325Y-14368746D02*
X16876849Y-14321127D01*
X16876849Y-14321127D02*
X16886373Y-14292555D01*
X16886373Y-14292555D02*
X16895896Y-14273508D01*
X16895896Y-14273508D02*
X16914944Y-14244936D01*
X16914944Y-14244936D02*
X16924468Y-14235412D01*
X17000658Y-14330650D02*
X17000658Y-14463984D01*
X17000658Y-14349698D02*
X17010182Y-14340174D01*
X17010182Y-14340174D02*
X17029230Y-14330650D01*
X17029230Y-14330650D02*
X17057801Y-14330650D01*
X17057801Y-14330650D02*
X17076849Y-14340174D01*
X17076849Y-14340174D02*
X17086373Y-14359222D01*
X17086373Y-14359222D02*
X17086373Y-14463984D01*
X17210182Y-14463984D02*
X17191134Y-14454460D01*
X17191134Y-14454460D02*
X17181611Y-14444936D01*
X17181611Y-14444936D02*
X17172087Y-14425888D01*
X17172087Y-14425888D02*
X17172087Y-14368746D01*
X17172087Y-14368746D02*
X17181611Y-14349698D01*
X17181611Y-14349698D02*
X17191134Y-14340174D01*
X17191134Y-14340174D02*
X17210182Y-14330650D01*
X17210182Y-14330650D02*
X17238754Y-14330650D01*
X17238754Y-14330650D02*
X17257801Y-14340174D01*
X17257801Y-14340174D02*
X17267325Y-14349698D01*
X17267325Y-14349698D02*
X17276849Y-14368746D01*
X17276849Y-14368746D02*
X17276849Y-14425888D01*
X17276849Y-14425888D02*
X17267325Y-14444936D01*
X17267325Y-14444936D02*
X17257801Y-14454460D01*
X17257801Y-14454460D02*
X17238754Y-14463984D01*
X17238754Y-14463984D02*
X17210182Y-14463984D01*
X17333992Y-14330650D02*
X17410182Y-14330650D01*
X17362563Y-14263984D02*
X17362563Y-14435412D01*
X17362563Y-14435412D02*
X17372087Y-14454460D01*
X17372087Y-14454460D02*
X17391134Y-14463984D01*
X17391134Y-14463984D02*
X17410182Y-14463984D01*
X17629230Y-14330650D02*
X17629230Y-14530650D01*
X17629230Y-14340174D02*
X17648277Y-14330650D01*
X17648277Y-14330650D02*
X17686373Y-14330650D01*
X17686373Y-14330650D02*
X17705420Y-14340174D01*
X17705420Y-14340174D02*
X17714944Y-14349698D01*
X17714944Y-14349698D02*
X17724468Y-14368746D01*
X17724468Y-14368746D02*
X17724468Y-14425888D01*
X17724468Y-14425888D02*
X17714944Y-14444936D01*
X17714944Y-14444936D02*
X17705420Y-14454460D01*
X17705420Y-14454460D02*
X17686373Y-14463984D01*
X17686373Y-14463984D02*
X17648277Y-14463984D01*
X17648277Y-14463984D02*
X17629230Y-14454460D01*
X17838754Y-14463984D02*
X17819706Y-14454460D01*
X17819706Y-14454460D02*
X17810182Y-14435412D01*
X17810182Y-14435412D02*
X17810182Y-14263984D01*
X18000658Y-14463984D02*
X18000658Y-14359222D01*
X18000658Y-14359222D02*
X17991135Y-14340174D01*
X17991135Y-14340174D02*
X17972087Y-14330650D01*
X17972087Y-14330650D02*
X17933992Y-14330650D01*
X17933992Y-14330650D02*
X17914944Y-14340174D01*
X18000658Y-14454460D02*
X17981611Y-14463984D01*
X17981611Y-14463984D02*
X17933992Y-14463984D01*
X17933992Y-14463984D02*
X17914944Y-14454460D01*
X17914944Y-14454460D02*
X17905420Y-14435412D01*
X17905420Y-14435412D02*
X17905420Y-14416365D01*
X17905420Y-14416365D02*
X17914944Y-14397317D01*
X17914944Y-14397317D02*
X17933992Y-14387793D01*
X17933992Y-14387793D02*
X17981611Y-14387793D01*
X17981611Y-14387793D02*
X18000658Y-14378269D01*
X18067325Y-14330650D02*
X18143515Y-14330650D01*
X18095896Y-14263984D02*
X18095896Y-14435412D01*
X18095896Y-14435412D02*
X18105420Y-14454460D01*
X18105420Y-14454460D02*
X18124468Y-14463984D01*
X18124468Y-14463984D02*
X18143515Y-14463984D01*
X18286373Y-14454460D02*
X18267325Y-14463984D01*
X18267325Y-14463984D02*
X18229230Y-14463984D01*
X18229230Y-14463984D02*
X18210182Y-14454460D01*
X18210182Y-14454460D02*
X18200658Y-14435412D01*
X18200658Y-14435412D02*
X18200658Y-14359222D01*
X18200658Y-14359222D02*
X18210182Y-14340174D01*
X18210182Y-14340174D02*
X18229230Y-14330650D01*
X18229230Y-14330650D02*
X18267325Y-14330650D01*
X18267325Y-14330650D02*
X18286373Y-14340174D01*
X18286373Y-14340174D02*
X18295896Y-14359222D01*
X18295896Y-14359222D02*
X18295896Y-14378269D01*
X18295896Y-14378269D02*
X18200658Y-14397317D01*
X18467325Y-14463984D02*
X18467325Y-14263984D01*
X18467325Y-14454460D02*
X18448277Y-14463984D01*
X18448277Y-14463984D02*
X18410182Y-14463984D01*
X18410182Y-14463984D02*
X18391135Y-14454460D01*
X18391135Y-14454460D02*
X18381611Y-14444936D01*
X18381611Y-14444936D02*
X18372087Y-14425888D01*
X18372087Y-14425888D02*
X18372087Y-14368746D01*
X18372087Y-14368746D02*
X18381611Y-14349698D01*
X18381611Y-14349698D02*
X18391135Y-14340174D01*
X18391135Y-14340174D02*
X18410182Y-14330650D01*
X18410182Y-14330650D02*
X18448277Y-14330650D01*
X18448277Y-14330650D02*
X18467325Y-14340174D01*
X18543516Y-14540174D02*
X18553039Y-14530650D01*
X18553039Y-14530650D02*
X18572087Y-14502079D01*
X18572087Y-14502079D02*
X18581611Y-14483031D01*
X18581611Y-14483031D02*
X18591135Y-14454460D01*
X18591135Y-14454460D02*
X18600658Y-14406841D01*
X18600658Y-14406841D02*
X18600658Y-14368746D01*
X18600658Y-14368746D02*
X18591135Y-14321127D01*
X18591135Y-14321127D02*
X18581611Y-14292555D01*
X18581611Y-14292555D02*
X18572087Y-14273508D01*
X18572087Y-14273508D02*
X18553039Y-14244936D01*
X18553039Y-14244936D02*
X18543516Y-14235412D01*
M02*
